<svg width="545" height="417" viewBox="0 0 545 417" fill="none" xmlns="http://www.w3.org/2000/svg">
<path d="M369.108 22.9124C375.46 25.0176 376.819 27.7348 374.391 33.65C373.652 35.4505 375.016 35.5373 375.752 36.0239C385.005 42.1422 393.393 49.2345 400.526 57.7595C410.502 69.6774 416.901 83.2173 417.991 98.8199C420.05 128.297 409.728 152.828 387.567 172.319C369.936 187.826 349.163 197.262 326.52 202.516C283.907 212.401 241.611 211.509 200.079 196.952C179.342 189.683 160.911 178.514 146.669 161.423C127.413 138.317 121.916 111.914 130.031 83.142C134.908 65.8503 146.687 53.0141 160.573 42.0881C163.089 40.1082 165.73 38.2782 168.372 36.467C169.334 35.8084 169.372 35.5086 168.646 34.4863C165.264 29.727 166.608 25.4936 172.067 23.4227C172.978 23.0771 173.424 22.9566 172.863 21.8459C171.217 18.5872 172.297 15.6325 174.663 13.3618C179.959 8.27892 186.141 4.33876 192.59 0.91877C195.761 -0.762965 198.999 -0.0920799 201.686 2.57101C205.459 6.31048 209.368 9.9148 213.079 13.7141C214.43 15.0968 215.568 15.4679 217.523 14.9657C253.457 5.73299 289.453 5.53802 325.465 14.5316C327.207 14.9666 328.371 14.7609 329.67 13.4151C333.15 9.81157 336.864 6.43582 340.393 2.87739C343.518 -0.273096 347.145 -0.821928 350.798 1.31035C356.493 4.63286 362.119 8.14377 367.047 12.5697C370.144 15.3507 371.47 18.7568 369.108 22.9124Z" fill="#2D3277"/>
<path d="M89.802 295.055C89.802 301.37 89.7447 307.685 89.8389 313.998C89.8651 315.756 89.5178 316.493 87.5567 316.398C84.0572 316.228 80.5381 316.235 77.037 316.395C75.0743 316.485 74.7409 315.724 74.7508 313.966C74.8179 302.139 74.8499 290.312 74.7581 278.486C74.6959 270.361 69.0961 265.912 61.2109 267.513C55.9453 268.582 52.5327 272.955 52.5048 278.927C52.4524 290.452 52.4074 301.98 52.5515 313.504C52.5818 315.969 51.8012 316.526 49.5337 316.396C46.3366 316.213 43.1156 316.233 39.9168 316.393C37.9385 316.492 37.3872 315.874 37.4036 313.894C37.4962 302.77 37.4487 291.644 37.4462 280.519C37.4462 279.517 37.4675 278.513 37.4085 277.514C37.0456 271.41 33.615 267.795 27.7179 267.273C21.7495 266.744 16.8984 270.116 15.6533 275.771C15.3338 277.222 15.2322 278.747 15.2273 280.238C15.1929 291.363 15.1388 302.489 15.265 313.613C15.2912 315.884 14.6916 316.536 12.4438 316.403C9.04838 316.2 5.63166 316.322 2.22395 316.364C0.985383 316.379 0.13346 316.288 0.169503 314.651C0.466039 301.131 -0.71683 287.558 0.762574 274.1C1.86434 264.081 7.49034 256.714 17.2719 253.478C27.0838 250.233 36.3125 251.425 43.9176 259.12C45.1504 260.366 45.6288 260.034 46.6642 259.034C54.8919 251.09 64.5956 250.045 74.7835 253.994C84.6372 257.813 88.964 266.018 89.648 276.12C90.074 282.404 89.7275 288.741 89.7275 295.055H89.802Z" fill="#2D3277"/>
<path d="M256.106 275.919C255.405 275.919 254.7 275.87 254.004 275.927C250.242 276.232 247.59 276.033 245.819 271.322C243.182 264.308 231.528 263.904 226.482 270.05C225.325 271.461 224.416 273.047 223.937 274.781C222.032 281.68 221.77 288.66 223.926 295.515C226.318 303.118 234.468 306.472 241.68 303.066C244.648 301.664 246.253 299.086 246.765 296.04C247.2 293.449 248.449 292.968 250.787 293.089C254.484 293.281 258.215 293.367 261.898 293.071C265.067 292.817 265.059 294.17 264.483 296.548C261.744 307.852 252.478 316.107 240.85 317.451C236.549 317.948 232.229 317.974 227.966 317.244C214.261 314.9 205.884 305.179 204.703 290.288C204.257 284.667 204.521 279.067 206.002 273.591C209.558 260.45 219.337 252.861 233.776 252.164C239.723 251.876 245.55 252.645 251.154 254.863C260.022 258.373 263.737 265.451 264.969 274.357C265.139 275.589 264.828 275.964 263.619 275.936C261.116 275.877 258.611 275.918 256.106 275.919Z" fill="#2D3277"/>
<path d="M176.711 373.288C176.711 386.306 176.637 399.324 176.775 412.341C176.802 414.815 176.037 415.398 173.741 415.276C170.346 415.095 166.932 415.172 163.53 415.255C161.981 415.294 161.194 415.054 161.198 413.18C161.261 389.648 161.17 366.115 161.295 342.584C161.329 336.083 169.301 330.223 175.619 331.598C177.383 331.982 176.675 333.313 176.678 334.234C176.726 347.252 176.711 360.27 176.711 373.288Z" fill="#2D3277"/>
<path d="M165.787 295.98C165.948 290.502 165.25 283.952 166.278 277.5C168.544 263.286 178.495 254.107 193.075 252.549C195.361 252.306 197.669 252.261 199.966 252.115C201.394 252.024 202.162 252.416 202.12 254.114C202.011 258.418 202.027 262.728 202.115 267.032C202.147 268.597 201.503 268.828 200.138 268.755C197.444 268.611 194.751 268.519 192.074 269.184C186.981 270.452 183.925 273.569 182.883 278.727C182.383 281.201 182.282 283.69 182.282 286.196C182.281 295.311 182.216 304.425 182.329 313.539C182.355 315.669 181.983 316.574 179.593 316.429C175.9 316.205 172.173 316.198 168.483 316.431C166.065 316.583 165.69 315.645 165.742 313.53C165.875 308.025 165.787 302.514 165.787 295.98Z" fill="#2D3277"/>
<path d="M283.428 395.561C283.71 389.877 282.819 383.033 284.014 376.265C286.592 361.662 297.505 352.572 313.488 351.637C319.639 351.276 319.639 351.276 319.639 357.308C319.639 360.216 319.531 363.128 319.677 366.028C319.775 367.976 319.116 368.52 317.265 368.113C316.303 367.901 315.267 367.963 314.267 367.994C305.065 368.273 300.341 372.715 300.102 381.929C299.842 391.948 299.914 401.978 300.02 412.002C300.046 414.488 299.679 415.613 296.812 415.368C293.229 415.063 289.592 415.156 285.994 415.346C283.784 415.462 283.331 414.651 283.382 412.618C283.516 407.309 283.428 401.993 283.428 395.561Z" fill="#2D3277"/>
<path d="M189.226 384.35C189.226 374.828 189.271 365.304 189.187 355.782C189.17 353.906 189.55 353.133 191.626 353.224C195.528 353.397 199.445 353.348 203.351 353.24C205.077 353.192 205.784 353.518 205.776 355.498C205.695 374.643 205.707 393.789 205.762 412.935C205.768 414.69 205.439 415.421 203.48 415.343C199.477 415.184 195.458 415.177 191.456 415.344C189.463 415.427 189.181 414.636 189.193 412.918C189.261 403.396 189.226 393.872 189.226 384.35Z" fill="#2D3277"/>
<path d="M197.574 331.412C200.177 331.748 203.706 330.278 205.234 332.064C206.538 333.587 205.745 337.007 205.668 339.582C205.591 342.231 206.869 345.754 205.093 347.277C203.567 348.584 200.151 347.782 197.573 347.737C194.899 347.691 191.439 348.885 189.765 347.244C188.085 345.598 189.271 342.126 189.262 339.461C189.254 336.899 188.111 333.513 189.735 331.981C191.478 330.337 194.87 331.702 197.574 331.412Z" fill="#2D3277"/>
<path d="M313.84 122.041C330.591 114.394 347.395 108.869 364.791 105.218C379.766 102.075 394.855 100.364 410.174 102.377C411.66 102.572 412.531 102.785 412.405 104.662C411.368 120.22 405.631 133.789 395.371 145.484C395.055 145.845 394.674 146.151 394.22 146.58C391.284 141.424 386.738 140.793 381.661 141.947C354.5 148.119 327.071 148.847 299.463 146.103C294.879 145.647 290.247 145.467 285.722 144.676C277.232 143.193 273.856 138.132 275.173 129.584C276.361 121.869 279.465 114.811 282.614 107.774C290.54 90.0546 297.701 72.0053 305.956 54.4236C311.51 42.5958 318.319 31.7771 327.762 22.6738C333.103 17.527 338.363 12.2934 343.564 7.00655C345.33 5.21259 347.113 4.8284 349.154 6.2136C353.789 9.35917 358.406 12.531 362.969 15.7797C365.195 17.3656 365.645 19.2382 363.748 21.5901C361.838 23.9566 359.684 26.0152 357.255 27.7993C356.083 28.6594 349.518 27.9811 348.654 26.9678C347.868 26.0463 348.75 25.2705 349.045 24.5095C349.485 23.3734 350.391 22.7008 351.668 23.1448C352.593 23.4667 353.448 23.9959 354.734 24.63C353.983 22.7746 355.555 22.4985 356.642 21.5884C352.194 21.2878 354.548 17.7638 353.302 15.7224C352.12 17.3648 352.42 20.621 350.094 20.5071C348.479 20.4285 346.964 18.338 345.236 17.0183C345.146 17.5409 344.98 17.862 345.076 18.0464C347.7 23.0817 347.725 23.4782 343.836 27.6879C341.323 30.4091 338.583 32.9207 335.972 35.5518C335.595 35.9319 334.816 36.2243 335.165 36.9468C335.462 37.5637 336.181 37.5112 336.771 37.5162C339.34 37.5375 341.208 36.0441 342.553 34.1879C345.281 30.4231 348.444 29.3696 352.602 31.6772C354.461 32.7077 356.253 32.3014 358.011 31.2643C361.095 29.4458 364.465 28.5791 368.027 28.4513C368.905 28.4194 370.005 28.2187 370.315 29.354C370.616 30.4542 369.946 31.3315 368.998 31.8066C368.116 32.2481 367.148 32.6241 366.18 32.7658C358.607 33.8701 351.36 35.972 344.404 39.2176C341.027 40.7928 337.42 41.4121 333.574 40.6625C329.974 39.9613 328.035 40.9861 326.562 44.3447C321.659 55.5246 318.036 66.9904 318.681 79.4678C319.25 90.4896 319.207 101.509 317.095 112.422C316.485 115.572 315.066 118.437 313.84 122.041Z" fill="white"/>
<path d="M207.324 37.1431C204.724 34.3367 202.151 31.8063 199.864 29.0383C195.697 23.9939 193.969 24.7746 197.63 16.7452C196.177 17.8257 195.26 18.4605 194.395 19.1601C191.876 21.1965 191.075 20.9532 189.998 17.7618C189.782 17.1212 189.806 16.3799 189.181 15.89C187.812 17.5726 190.242 21.2719 186.146 21.4791C186.217 22.807 189.216 22.3204 187.299 24.7427C191.989 22.5326 193.047 22.7357 193.834 25.5118C193.996 26.082 194.31 26.5735 193.655 27.0937C192.086 28.3412 186.176 28.5722 184.562 27.3214C182.181 25.4758 180.024 23.4222 178.269 20.9237C177.029 19.1601 177.295 17.806 178.77 16.4642C179.215 16.0604 179.606 15.5836 180.094 15.2429C184.281 12.3258 188.466 9.40717 192.687 6.54011C194.933 5.01483 196.881 5.01401 199.059 7.12827C206.396 14.2533 213.681 21.4267 220.6 28.9572C226.199 35.0518 230.47 42.0646 234.081 49.4772C244.866 71.6175 253.937 94.5122 263.747 117.082C265.626 121.403 266.867 125.954 267.419 130.667C268.305 138.241 264.944 143.182 257.442 144.569C249.055 146.121 240.504 146.273 232.019 146.929C207.876 148.795 183.978 147.135 160.332 141.839C156.601 141.004 152.89 141.194 149.983 144.215C149.086 145.147 148.649 144.614 148.117 143.939C139.251 132.69 132.883 120.449 132.756 105.677C132.741 103.838 133.241 103.141 135.188 102.875C149.791 100.876 164.191 102.332 178.494 105.275C194.929 108.658 210.797 113.81 226.005 120.943C226.688 121.263 227.322 121.88 228.41 121.638C222.497 107.509 223.386 92.6904 223.835 77.9209C224.197 65.9972 220.53 55.0287 215.906 44.2952C214.658 41.4003 212.348 39.8857 209.142 40.6073C204.221 41.7148 199.827 40.1846 195.528 38.1671C190.228 35.6793 184.66 34.1859 178.903 33.2767C176.936 32.9662 174.901 32.8032 173.178 31.6392C172.38 31.0985 171.883 30.3105 172.15 29.3267C172.426 28.3101 173.362 28.4256 174.148 28.4428C177.607 28.5182 180.959 29.2087 183.92 31.0051C186.213 32.3961 188.317 32.3912 190.749 31.4475C195.543 29.5872 195.652 29.7322 199.265 33.5585C201.434 35.8538 203.543 38.4521 207.324 37.1431Z" fill="white"/>
<path d="M271.249 140.625C275.25 147.853 281.694 149.818 288.693 150.392C306.565 151.859 324.432 153.688 342.409 152.51C355.513 151.651 368.54 150.187 381.376 147.294C383.019 146.924 384.661 146.384 386.408 146.679C388.324 147.003 389.3 148.286 389.987 149.949C390.672 151.609 389.112 152.049 388.36 152.753C373.901 166.267 356.903 175.552 338.194 181.491C287.856 197.472 238.163 196.046 189.52 174.663C176.501 168.94 164.774 161.086 154.619 151.033C153.98 150.4 152.718 149.967 153.16 148.702C153.602 147.437 154.741 146.997 155.96 146.703C157.085 146.431 158.15 146.69 159.224 146.927C184.463 152.492 209.953 154.136 235.697 151.852C242.283 151.267 248.882 150.825 255.456 150.14C261.987 149.459 267.654 147.098 271.249 140.625Z" fill="#FFE600"/>
<path d="M322.926 19.8599C322.867 20.0426 322.862 20.285 322.739 20.4022C310.996 31.5796 304.116 45.7978 297.567 60.2756C289.397 78.3348 281.961 96.7069 274.029 114.866C273.003 117.217 272.285 119.702 271.18 122.81C267.53 110.616 261.712 100.024 257.274 88.8422C251.919 75.3498 245.808 62.1793 239.633 49.0433C234.65 38.4417 228.313 28.7756 219.802 20.5865C235.299 11.8485 302.834 11.4283 322.926 19.8599Z" fill="#FFE600"/>
<path d="M322.435 112.516C323.945 103.069 324.85 93.7413 324.011 84.4782C322.861 71.805 325.555 60.023 330.292 48.4704C331.118 46.4577 331.883 45.4657 334.398 45.8991C339.86 46.8386 344.859 44.8899 349.717 42.6019C355.298 39.9716 361.278 38.8141 367.315 37.85C368.112 37.723 368.683 37.9893 369.272 38.3546C386.221 48.8751 400.335 61.9939 408.124 80.8797C410.004 85.4375 411.175 90.196 411.914 95.0651C412.107 96.338 412.282 97.3882 410.268 97.1793C380.356 94.0821 352.233 101.527 324.599 111.809C323.97 112.042 323.324 112.226 322.435 112.516Z" fill="#FFE600"/>
<path d="M219.538 112.312C212.361 109.53 205.059 106.822 197.584 104.623C179.599 99.331 161.347 95.9888 142.495 97.0251C139.997 97.1627 137.488 97.3454 135.021 97.7386C133.059 98.0523 132.597 97.4756 132.835 95.5612C133.914 86.87 136.891 78.8389 141.316 71.3575C149.523 57.4818 161.28 47.1956 174.834 38.8098C177.323 37.2698 179.942 38.5977 182.368 39.1907C186.925 40.304 191.375 41.7776 195.648 43.8354C199.863 45.8653 204.422 46.6934 209.111 45.8177C210.517 45.5548 211.15 46.0496 211.619 47.2234C215.96 58.0675 219.516 68.9861 218.541 81.0105C217.738 90.9068 218.276 100.843 219.734 110.696C219.805 111.172 220.082 111.652 219.538 112.312Z" fill="#FFE600"/>
<path fill-rule="evenodd" clip-rule="evenodd" d="M374.553 255.56C374.563 257.397 374.573 259.293 374.573 261.272C370.81 256.216 366.644 253.306 361.207 252.461C348.771 250.525 338.008 256.793 333.388 268.885C330.131 277.406 329.429 286.276 331.236 295.19C333.175 304.762 337.931 312.287 347.775 315.564C354.371 317.76 361.15 318.264 367.955 317.187C382.919 314.815 391.076 305.028 391.088 289.799C391.092 285.023 391.098 280.246 391.104 275.47C391.111 270.328 391.117 265.186 391.12 260.044C391.121 259.19 391.122 258.336 391.122 257.483C391.128 249.921 391.134 242.359 391.098 234.797C391.097 234.627 391.118 234.448 391.138 234.267C391.22 233.533 391.306 232.766 390.022 232.471C382.337 230.705 374.781 236.384 374.597 244.287C374.512 247.955 374.532 251.626 374.553 255.56ZM372.336 297.765C374.372 294.078 375.08 290.066 374.964 286.328C374.995 281.223 374.432 276.677 371.959 272.595C369.279 268.168 365.275 266.137 360.124 266.37C355.143 266.594 351.589 269.005 349.587 273.551C346.268 281.089 346.425 288.768 349.185 296.379C350.894 301.09 354.366 303.892 359.514 304.29C365.107 304.721 369.548 302.813 372.336 297.765Z" fill="#2D3277"/>
<path fill-rule="evenodd" clip-rule="evenodd" d="M129.869 289.344C131.733 289.338 133.596 289.333 135.46 289.333C140.869 289.332 146.279 289.332 151.689 289.332C155.056 289.332 156.743 289.332 157.556 288.489C158.371 287.644 158.308 285.95 158.181 282.557C157.497 264.336 147.324 253.534 129.554 252.157C113.052 250.88 100.259 260.456 97.1654 276.526C96.0014 282.58 96.1169 288.672 97.2195 294.75C98.9258 304.153 104.22 310.725 112.849 314.664C122.364 319.008 132.085 319.139 141.761 315.459C148.39 312.938 153.141 308.153 156.245 301.754C157.057 300.08 156.961 299.312 154.729 299.392C151.667 299.504 148.601 299.481 145.534 299.459C144.192 299.449 142.849 299.44 141.507 299.441C141.39 299.441 141.272 299.439 141.155 299.436C140.388 299.42 139.632 299.404 139.045 300.158C135.796 304.331 131.194 304.49 126.498 304.319C119.199 304.055 113.977 299.094 113.047 291.824C112.784 289.763 113.3 289.254 115.324 289.289C120.171 289.373 125.02 289.358 129.869 289.344ZM123.92 278.622C124.954 278.62 125.988 278.618 127.022 278.618C128.188 278.618 129.354 278.606 130.521 278.593C133.265 278.564 136.01 278.535 138.746 278.67C141.135 278.788 141.322 277.877 140.907 275.895C139.487 269.096 133.817 265.197 125.785 265.638C119.396 265.991 114.171 271.005 113.48 277.202C113.307 278.759 114.078 278.69 114.827 278.624C114.987 278.61 115.146 278.596 115.295 278.597C118.17 278.632 121.045 278.627 123.92 278.622Z" fill="#2D3277"/>
<path d="M525.399 295.99C523.035 301.548 518.825 304.392 512.822 304.5C506.862 304.607 502.227 302.173 499.881 296.588C496.683 288.978 496.683 281.167 499.89 273.555C502.197 268.078 506.768 265.688 512.581 265.712C518.412 265.736 522.722 268.31 525.2 273.713C526.866 277.345 527.214 281.208 527.246 285.13C527.206 288.848 526.88 292.51 525.399 295.99ZM541.202 269.496C537.111 260.01 530.002 254.073 519.595 252.486C516.219 251.972 512.818 251.904 509.408 252.104C496.187 252.879 487.388 259.483 482.886 271.978C481.862 274.821 481.286 277.753 480.902 280.735C478.126 302.22 491.682 318.153 514.571 318.099C525.838 318.258 535.882 313.155 541.234 300.709C545.679 290.375 545.659 279.831 541.202 269.496" fill="#2D3277"/>
<path fill-rule="evenodd" clip-rule="evenodd" d="M367.398 413.784C374.109 410.942 378.724 405.802 381.54 398.433C379.993 398.433 378.484 398.437 377.004 398.44C373.114 398.45 369.418 398.459 365.723 398.399C364.496 398.38 363.851 398.998 363.091 399.727C363.052 399.764 363.014 399.801 362.974 399.839C358.259 404.337 352.553 404.113 346.915 402.579C341.673 401.151 339.098 397.067 338.01 391.873C337.465 389.276 337.832 388.256 340.914 388.301C348.499 388.41 356.085 388.404 363.672 388.397C369.107 388.393 374.541 388.388 379.976 388.426C382.022 388.441 382.874 387.991 382.649 385.815C382.526 384.635 382.523 383.444 382.52 382.252C382.517 381.337 382.515 380.422 382.458 379.511C381.592 365.577 373.357 355.386 360.6 352.421C356.662 351.506 352.67 351.351 348.654 351.62C335.442 352.503 325.259 361.263 322.434 374.165C321.112 380.203 321.007 386.283 321.914 392.38C323.27 401.488 327.752 408.485 336.069 412.717C346.321 417.931 356.883 418.238 367.398 413.784ZM348.986 377.835C349.951 377.836 350.917 377.836 351.882 377.836C353.01 377.836 354.139 377.825 355.267 377.814C357.941 377.787 360.614 377.76 363.281 377.884C365.589 377.99 365.979 377.196 365.507 375.122C363.984 368.417 358.593 364.523 351.023 364.812C344.409 365.063 339.39 369.662 338.297 376.235C338.029 377.846 338.749 377.844 339.8 377.841C339.827 377.841 339.855 377.84 339.882 377.84C342.916 377.832 345.951 377.833 348.986 377.835Z" fill="#2D3277"/>
<path fill-rule="evenodd" clip-rule="evenodd" d="M325.446 286.457C325.436 285.163 325.426 283.868 325.427 282.574C325.427 281.336 325.433 280.097 325.439 278.859C325.453 276.089 325.467 273.319 325.414 270.55C325.256 262.175 321.826 257.325 313.947 254.463C305.827 251.512 297.498 251.106 289.099 252.995C279.106 255.242 273.777 261.265 272.32 271.316C272.02 273.386 272.634 273.682 274.418 273.631C278.023 273.528 281.635 273.506 285.237 273.639C287.095 273.708 288.072 273.35 288.539 271.282C289.254 268.108 291.446 266.057 294.716 265.445C298.307 264.773 301.893 264.83 305.391 266.032C307.866 266.882 309.026 268.734 309.167 271.272C309.31 273.843 307.884 275.404 305.677 276.33C303.536 277.228 301.244 277.53 298.955 277.812C298.26 277.897 297.564 277.979 296.869 278.061C291.498 278.693 286.125 279.326 281.077 281.488C273.195 284.864 269.364 292.013 270.227 301.619C270.944 309.607 276.064 315.397 284.42 316.889C293.203 318.458 302.001 318.144 310.525 315.21C320.124 311.905 325.102 305.056 325.406 294.899C325.49 292.087 325.468 289.272 325.446 286.457ZM309.103 287.939C309.093 287.153 309.083 286.341 309.086 285.493C305.884 287.336 302.675 287.913 299.501 288.482C299.049 288.564 298.598 288.645 298.148 288.729C297.994 288.758 297.841 288.787 297.688 288.815C295.194 289.281 292.689 289.749 290.431 291.01C287.24 292.795 286.213 295.661 286.528 299.114C286.822 302.35 288.634 304.487 291.696 305.383C299.331 307.62 307.638 302.272 308.839 294.4C309.157 292.32 309.132 290.241 309.103 287.939Z" fill="#2D3277"/>
<path d="M278.284 343.182L252.466 413H241.557L215.739 343.182H227.375L246.648 398.818H247.375L266.648 343.182H278.284Z" fill="#FF0000"/>
<path d="M407.881 316V246.182H418.608V316H407.881ZM413.335 234.545C411.244 234.545 409.441 233.833 407.926 232.409C406.441 230.985 405.699 229.273 405.699 227.273C405.699 225.273 406.441 223.561 407.926 222.136C409.441 220.712 411.244 220 413.335 220C415.426 220 417.214 220.712 418.699 222.136C420.214 223.561 420.972 225.273 420.972 227.273C420.972 229.273 420.214 230.985 418.699 232.409C417.214 233.833 415.426 234.545 413.335 234.545ZM468.619 246.182V255.273H432.438V246.182H468.619ZM442.983 229.455H453.71V296C453.71 299.03 454.15 301.303 455.028 302.818C455.938 304.303 457.089 305.303 458.483 305.818C459.907 306.303 461.407 306.545 462.983 306.545C464.165 306.545 465.134 306.485 465.892 306.364C466.65 306.212 467.256 306.091 467.71 306L469.892 315.636C469.165 315.909 468.15 316.182 466.847 316.455C465.544 316.758 463.892 316.909 461.892 316.909C458.862 316.909 455.892 316.258 452.983 314.955C450.104 313.652 447.71 311.667 445.801 309C443.922 306.333 442.983 302.97 442.983 298.909V229.455Z" fill="#FF0000"/>
</svg>
